<?xml version="1.0" encoding="UTF-8"?>
<svg id="_レイヤー_1" data-name="レイヤー 1" xmlns="http://www.w3.org/2000/svg" viewBox="0 0 155.33 146.25">
  <defs>
    <style>
      .cls-1 {
        fill: #040000;
      }

      .cls-2 {
        fill: #fff;
      }

      .cls-3 {
        fill: #efea3c;
      }
    </style>
  </defs>
  <path class="cls-3" d="m83.07,131.53l-7.01,5.4s-1.71,3.38,1.35,5.77c3.06,2.39,6.18-.16,6.18-.16l3.08-7.8-3.6-3.21Z"/>
  <rect class="cls-1" x="101.61" y="133.55" width="4.03" height="4.84" transform="translate(-65.08 163.65) rotate(-62.01)"/>
  <rect class="cls-1" x="97.4" y="131.32" width="4.03" height="4.84" transform="translate(-65.34 158.75) rotate(-62.01)"/>
  <path class="cls-1" d="m120.96,146.25c-2.01,0-3.51-.66-3.68-.74l-.1-.05-1.82-.96,1.89-3.56,1.74.93c.16.06.96.36,1.96.36s1.83-.27,2.57-.81c.24-.17.45-.36.63-.57l2.99,2.71c-.37.41-.79.78-1.25,1.12-1.45,1.05-3.11,1.58-4.94,1.58Zm-6.35-2.16l-9.04-4.81,1.89-3.56,9.04,4.81-1.89,3.56Zm13.25-1.45l-3.35-2.24c.62-.92.71-1.96.71-2.5,0-.3-.03-.48-.03-.49l-.94-5.51,3.97-.68.95,5.53c.01.08.08.51.08,1.15,0,1.22-.24,3.02-1.39,4.74Zm-3.76-11.58l-1.73-10.09,3.97-.68,1.73,10.09-3.97.68Zm-1.88-10.94l-1.73-10.09,3.97-.68,1.73,10.09-3.97.68Zm-1.88-10.94l-1.73-10.09,3.97-.68,1.73,10.09-3.97.68Z"/>
  <polygon class="cls-1" points="118.48 98.26 117.48 92.44 121.74 88.34 124.53 91.25 121.82 93.86 122.46 97.58 118.48 98.26"/>
  <path class="cls-1" d="m125.1,90.7l-2.8-2.9,6.81-6.55,2.8,2.9-6.81,6.55Zm7.37-7.1l-2.8-2.9,6.81-6.55,2.8,2.9-6.81,6.55Zm7.37-7.1l-2.8-2.9,6.81-6.55,2.8,2.9-6.81,6.55Zm7.37-7.1l-2.8-2.9,5.69-5.48c.07-.08.29-.36.52-.78l3.53,1.95c-.51.92-1.01,1.49-1.11,1.59l-.08.09-5.76,5.54Zm7.38-8.11l-3.71-1.58c.26-.62.4-1.24.4-1.85,0-.44-.07-.87-.21-1.3-.34-1.04-1.02-1.84-2.04-2.36l1.86-3.58c1.96,1.02,3.34,2.64,4.01,4.69.27.83.41,1.69.41,2.55,0,1.16-.24,2.31-.72,3.43Zm-6.07-7.33c-.39-.15-.68-.21-.72-.22l-8.15-1.19.58-3.99,8.1,1.18c.39.04.92.17,1.65.45l-1.15,2.98.18.37-.4.2-.08.2Zm-9.66-1.51l-9.35-1.36.58-3.99,9.35,1.36-.58,3.99Zm-10.13-1.47l-9.35-1.36.58-3.99,9.35,1.36-.58,3.99Zm-10.13-1.47l-9.35-1.36.58-3.99,9.35,1.36-.58,3.99Z"/>
  <polygon class="cls-1" points="108.5 48.05 102.66 47.2 100.07 41.89 103.69 40.13 105.35 43.52 109.08 44.06 108.5 48.05"/>
  <path class="cls-1" d="m57.86,41.2l-3.62-1.78,4.19-8.49,3.62,1.78-4.19,8.49Zm41.86-.02l-4.15-8.51,3.62-1.77,4.15,8.51-3.62,1.77Zm-37.33-9.18l-3.62-1.78,4.19-8.49,3.62,1.78-4.19,8.49Zm32.83-.04l-4.15-8.51,3.62-1.77,4.15,8.51-3.62,1.77Zm-28.29-9.15l-3.62-1.78,4.19-8.49,3.62,1.78-4.19,8.49Zm23.8-.06l-4.15-8.51,3.62-1.77,4.15,8.51-3.62,1.77Zm-19.26-9.13l-3.62-1.78,3.63-7.36c.06-.11.36-.71.97-1.44l3.1,2.58c-.31.37-.46.66-.46.67l-3.62,7.34Zm14.76-.08l-3.52-7.21c-.05-.09-.24-.36-.54-.69l2.98-2.72c.67.74,1.03,1.34,1.09,1.46l.05.1,3.55,7.28-3.62,1.77Zm-4.47-8.31c-.89-.8-1.89-1.2-2.99-1.2-1.08,0-2.03.39-2.84,1.17l-2.8-2.91c1.56-1.5,3.51-2.3,5.64-2.3,2.09,0,4.05.77,5.68,2.23l-2.69,3Z"/>
  <polygon class="cls-1" points="47.52 48.24 46.96 44.25 52.23 43.51 53.9 40.13 57.51 41.91 54.9 47.21 47.52 48.24"/>
  <path class="cls-1" d="m13.58,50.78c-.08.07-2.62,2.6-2.17,6.62.96,8.55,10.04,15.3,10.13,15.36l-2.38,3.26c-.43-.32-10.61-7.84-11.76-18.17-.7-6.3,2.71-9.18,2.85-9.3"/>
  <path class="cls-1" d="m46.72,48.36l-.54-4.03s-14.07-3.1-17.54-6.16c-.45-.39-1.42-5.57-1.98-6.08-.56-.51-7.44.49-7.44.49l5.66,3.73-.78,1.65,1.97.39-.33,7.69-1.9.13.59,1.74s8.23.42,12.41.44,9.88,0,9.88,0Z"/>
  <polygon class="cls-1" points="44.1 43.48 41.2 40.63 40.06 42.12 44.1 43.48"/>
  <polygon class="cls-1" points="39.07 41.64 40.16 40.12 37.01 37.1 34.24 39.99 39.07 41.64"/>
  <polygon class="cls-1" points="25.21 30.76 24.97 28.85 20.82 29.33 21.15 31.32 25.21 30.76"/>
  <polygon class="cls-1" points="17.43 31.32 16.68 29.73 12.5 30.63 12.74 31.72 17.43 31.32"/>
  <path class="cls-1" d="m10.74,36.25l.78,2.17-2.34.32-.18,5.61,2.18.44-.88,2.07,4.78,3.05,1.41-1.72,1.44,1.83,5.02-2.59-.85-2.26,2.41-.29.23-5.59-2.2-.43.83-1.97-4.86-3.11-1.49,1.65-1.27-1.79-5.02,2.59Zm10.56,3.3c1.28,2.48.31,5.53-2.17,6.81-2.48,1.28-5.53.31-6.81-2.17s-.31-5.53,2.17-6.81c2.48-1.28,5.53-.31,6.81,2.17Z"/>
  <path class="cls-1" d="m15.06,38.5c1.86-.96,4.15-.23,5.11,1.63s.23,4.15-1.63,5.11c-1.86.96-4.15.23-5.11-1.63-.96-1.86-.23-4.15,1.63-5.11Z"/>
  <polygon class="cls-1" points="17.19 33.64 17.97 32.66 16.62 32.78 17.19 33.64"/>
  <path class="cls-1" d="m8.98,46.86l.54-1.09-1.85-.46.35-7.65,1.87-.19-.71-1.75,5.26-2.72s-.74-.31-2.27.34c-1.53.65-4.77,2.31-4.77,2.31l-3.4,1.17-1.62,7.74,1.61.94,4.99,1.37Z"/>
  <g>
    <path class="cls-1" d="m35.33,100.78h-1.48l-.15-3.13c-.04-1.07-.09-2.16-.08-3.18h-.03c-.23.96-.52,2.03-.8,2.94l-.99,3.26h-1.17l-.89-3.21c-.26-.91-.51-2-.7-2.99h-.03c-.02,1.02-.07,2.21-.13,3.21l-.16,3.1h-1.42l.54-8.06h1.92l.87,3.03c.26.97.49,1.92.67,2.84h.03c.19-.9.43-1.88.7-2.84l.91-3.03h1.91l.46,8.06Z"/>
    <path class="cls-1" d="m40.97,99.39c0,.51.02,1.03.08,1.38h-1.39l-.09-.61h-.03c-.34.46-.9.72-1.55.72-1.08,0-1.75-.81-1.75-1.75,0-1.5,1.33-2.2,3.19-2.2,0-.58-.2-1.02-1.05-1.02-.53,0-1.06.17-1.44.4l-.29-1.01c.39-.23,1.11-.49,2.02-.49,1.81,0,2.31,1.15,2.31,2.43v2.14Zm-1.51-1.46c-.84,0-1.71.2-1.71,1.05,0,.56.35.8.73.8.37,0,.97-.26.97-1.01v-.84Z"/>
    <path class="cls-1" d="m43.93,95.64c.34-.51.88-.83,1.62-.83,1.29,0,2.15,1.2,2.15,2.94,0,2.12-1.18,3.15-2.39,3.15-.65,0-1.21-.26-1.57-.92h-.03l-.07.81h-1.32c.02-.42.04-1.08.04-1.68v-6.75h1.55v3.29h.02Zm-.02,2.81c0,.66.43,1.21,1.05,1.21.75,0,1.18-.7,1.18-1.83,0-1-.39-1.77-1.18-1.77-.53,0-1.05.5-1.05,1.26v1.14Z"/>
    <path class="cls-1" d="m53.2,100.55c-.48.21-1.16.34-1.89.34-1.8,0-2.83-1.13-2.83-2.95,0-1.68.96-3.12,2.67-3.12,1.42,0,2.34,1.01,2.34,2.89,0,.23-.01.45-.04.62h-3.49c.04,1,.75,1.39,1.59,1.39.58,0,1.03-.1,1.43-.24l.22,1.07Zm-1.14-3.3c.01-.61-.23-1.35-1-1.35s-1.06.78-1.1,1.35h2.1Z"/>
    <path class="cls-1" d="m33.36,111.35c-.47.18-1.38.4-2.3.4-1.23,0-2.16-.31-2.84-.99-.69-.68-1.09-1.78-1.09-3.06,0-2.73,1.81-4.18,4.13-4.18.82,0,1.5.15,1.89.34l-.32,1.28c-.37-.17-.83-.29-1.54-.29-1.44,0-2.53.88-2.53,2.83s1,2.81,2.33,2.81c.38,0,.66-.05.8-.12v-1.97h-1.16v-1.23h2.64v4.18Z"/>
    <path class="cls-1" d="m39.76,108.7c0,2.22-1.43,3.08-2.73,3.08-1.57,0-2.7-1.11-2.7-3.01s1.18-3.07,2.77-3.07,2.66,1.23,2.66,3Zm-2.69-1.86c-.86,0-1.16,1.01-1.16,1.9,0,1.04.4,1.9,1.15,1.9s1.13-.87,1.13-1.91c0-.91-.32-1.89-1.12-1.89Z"/>
    <path class="cls-1" d="m44.06,107.21c-.12-.02-.24-.03-.4-.03-.7,0-1.24.47-1.24,1.47v3.02h-1.55v-4.01c0-.72-.02-1.3-.04-1.82h1.33l.06,1.02h.04c.27-.75.9-1.14,1.45-1.14.15,0,.24.01.35.03v1.48Z"/>
    <path class="cls-1" d="m49.76,105.82l-1.32,4.06c-.65,1.89-1.14,2.91-1.8,3.57-.57.54-1.16.75-1.51.82l-.39-1.31c.25-.07.55-.24.82-.43.51-.37.78-.96.78-1.08,0-.06-.02-.15-.06-.26l-1.96-5.37h1.7l.86,3.05c.09.36.2.76.27,1.09h.03c.06-.31.16-.72.24-1.09l.73-3.05h1.61Z"/>
    <path class="cls-1" d="m55.59,108.7c0,2.22-1.43,3.08-2.73,3.08-1.57,0-2.7-1.11-2.7-3.01s1.18-3.07,2.77-3.07,2.66,1.23,2.66,3Zm-2.69-1.86c-.86,0-1.16,1.01-1.16,1.9,0,1.04.4,1.9,1.15,1.9s1.13-.87,1.13-1.91c0-.91-.32-1.89-1.12-1.89Z"/>
    <path class="cls-1" d="m61.94,111.66h-1.85l-1.36-2.5-.41.56v1.94h-1.55v-8.43h1.55v5.14h.03c.13-.26.25-.5.39-.72l1.16-1.82h1.8l-1.91,2.4,2.14,3.44Z"/>
    <path class="cls-1" d="m66.9,110.28c0,.51.02,1.03.08,1.38h-1.39l-.09-.61h-.03c-.34.46-.9.72-1.55.72-1.08,0-1.75-.81-1.75-1.75,0-1.5,1.33-2.2,3.19-2.2,0-.58-.2-1.02-1.05-1.02-.53,0-1.06.17-1.44.4l-.29-1.01c.39-.23,1.11-.49,2.02-.49,1.81,0,2.31,1.15,2.31,2.43v2.14Zm-1.51-1.46c-.84,0-1.71.2-1.71,1.05,0,.56.35.8.73.8.37,0,.97-.26.97-1.01v-.84Z"/>
    <path class="cls-1" d="m73.45,111.66h-1.84l-1.36-2.5-.41.56v1.94h-1.55v-8.43h1.55v5.14h.03c.13-.26.25-.5.39-.72l1.16-1.82h1.8l-1.91,2.4,2.14,3.44Z"/>
    <path class="cls-1" d="m78.98,109.88c0,.69.03,1.29.05,1.78h-1.35l-.07-.78h-.03c-.24.38-.78.89-1.68.89-1.11,0-1.87-.72-1.87-2.47v-3.48h1.55v3.25c0,.88.25,1.44.89,1.44.5,0,.95-.43.95-1.09v-3.6h1.55v4.06Z"/>
    <path class="cls-1" d="m33.36,122.23c-.47.18-1.38.4-2.3.4-1.23,0-2.16-.31-2.84-.99-.69-.68-1.09-1.78-1.09-3.06,0-2.73,1.81-4.18,4.13-4.18.82,0,1.5.15,1.89.34l-.32,1.28c-.37-.17-.83-.29-1.54-.29-1.44,0-2.53.88-2.53,2.83s1,2.81,2.33,2.81c.38,0,.66-.05.8-.12v-1.97h-1.16v-1.23h2.64v4.18Z"/>
    <path class="cls-1" d="m39.02,121.16c0,.51.02,1.03.08,1.38h-1.39l-.09-.61h-.03c-.34.46-.9.72-1.55.72-1.08,0-1.75-.81-1.75-1.75,0-1.5,1.33-2.2,3.19-2.2,0-.58-.2-1.02-1.05-1.02-.53,0-1.06.17-1.44.4l-.29-1.01c.39-.23,1.11-.49,2.02-.49,1.81,0,2.31,1.15,2.31,2.43v2.14Zm-1.51-1.46c-.84,0-1.71.2-1.71,1.05,0,.56.35.8.73.8.37,0,.97-.26.97-1.01v-.84Z"/>
    <path class="cls-1" d="m43.48,118c-.25-.14-.66-.3-1.1-.3-.47,0-.72.24-.72.56s.22.49.89.78c.99.41,1.45.97,1.45,1.78,0,1.11-.84,1.85-2.3,1.85-.64,0-1.26-.16-1.65-.39l.29-1.12c.3.18.88.39,1.36.39.55,0,.81-.23.81-.59s-.2-.54-.84-.82c-1.09-.44-1.49-1.06-1.49-1.7,0-1.05.84-1.84,2.14-1.84.6,0,1.11.15,1.45.33l-.29,1.09Z"/>
    <path class="cls-1" d="m45.3,115.64l1.53-.45v1.52h1.29v1.14h-1.29v2.54c0,.7.22,1,.69,1,.22,0,.35-.02.5-.05l.02,1.18c-.21.08-.59.14-1.04.14-1.68,0-1.71-1.46-1.71-2.11v-2.69h-.77v-1.14h.77v-1.07Z"/>
    <path class="cls-1" d="m52.27,118.09c-.12-.02-.24-.03-.4-.03-.7,0-1.24.47-1.24,1.47v3.02h-1.55v-4.01c0-.72-.02-1.3-.04-1.82h1.33l.06,1.02h.04c.27-.75.9-1.14,1.45-1.14.15,0,.24.01.35.03v1.48Z"/>
    <path class="cls-1" d="m58.23,119.58c0,2.22-1.43,3.08-2.73,3.08-1.57,0-2.7-1.11-2.7-3.01s1.18-3.07,2.77-3.07,2.66,1.23,2.66,3Zm-2.69-1.86c-.86,0-1.16,1.01-1.16,1.9,0,1.04.4,1.9,1.15,1.9s1.13-.87,1.13-1.91c0-.91-.32-1.89-1.12-1.89Z"/>
    <path class="cls-1" d="m60.11,115.94c-.49,0-.83-.36-.83-.83s.35-.83.83-.83.84.35.84.83-.36.83-.84.83Zm.79,6.6h-1.55v-5.84h1.55v5.84Z"/>
    <path class="cls-1" d="m67.28,122.55h-1.55v-3.41c0-.71-.23-1.28-.89-1.28-.42,0-1,.32-1,1.22v3.47h-1.55v-4.08c0-.68-.02-1.24-.04-1.75h1.34l.07.79h.03c.26-.43.84-.91,1.69-.91,1.07,0,1.9.74,1.9,2.38v3.57Z"/>
    <path class="cls-1" d="m68.92,115.64l1.53-.45v1.52h1.29v1.14h-1.29v2.54c0,.7.22,1,.69,1,.22,0,.35-.02.5-.05l.02,1.18c-.21.08-.59.14-1.04.14-1.68,0-1.71-1.46-1.71-2.11v-2.69h-.77v-1.14h.77v-1.07Z"/>
    <path class="cls-1" d="m77.1,122.32c-.48.21-1.16.34-1.89.34-1.8,0-2.83-1.13-2.83-2.95,0-1.68.96-3.12,2.67-3.12,1.42,0,2.34,1.01,2.34,2.89,0,.23-.01.45-.04.62h-3.49c.04,1,.75,1.39,1.59,1.39.58,0,1.03-.1,1.43-.24l.22,1.07Zm-1.14-3.3c.01-.61-.23-1.35-1-1.35s-1.06.78-1.1,1.35h2.1Z"/>
    <path class="cls-1" d="m81.55,118c-.25-.14-.66-.3-1.1-.3-.47,0-.72.24-.72.56s.22.49.89.78c.99.41,1.45.97,1.45,1.78,0,1.11-.84,1.85-2.3,1.85-.64,0-1.26-.16-1.65-.39l.29-1.12c.3.18.88.39,1.36.39.55,0,.81-.23.81-.59s-.2-.54-.84-.82c-1.09-.44-1.49-1.06-1.49-1.7,0-1.05.84-1.84,2.14-1.84.6,0,1.11.15,1.45.33l-.29,1.09Z"/>
    <path class="cls-1" d="m83.37,115.64l1.53-.45v1.52h1.29v1.14h-1.29v2.54c0,.7.22,1,.69,1,.22,0,.35-.02.5-.05l.02,1.18c-.21.08-.59.14-1.04.14-1.68,0-1.71-1.46-1.71-2.11v-2.69h-.77v-1.14h.77v-1.07Z"/>
    <path class="cls-1" d="m87.92,115.94c-.49,0-.83-.36-.83-.83s.35-.83.83-.83.84.35.84.83-.36.83-.84.83Zm.79,6.6h-1.55v-5.84h1.55v5.84Z"/>
    <path class="cls-1" d="m95.09,122.55h-1.55v-3.41c0-.71-.23-1.28-.89-1.28-.42,0-1,.32-1,1.22v3.47h-1.55v-4.08c0-.68-.02-1.24-.04-1.75h1.34l.07.79h.03c.26-.43.84-.91,1.69-.91,1.07,0,1.9.74,1.9,2.38v3.57Z"/>
    <path class="cls-1" d="m100.84,121.16c0,.51.02,1.03.08,1.38h-1.39l-.09-.61h-.03c-.34.46-.9.72-1.55.72-1.08,0-1.75-.81-1.75-1.75,0-1.5,1.33-2.2,3.19-2.2,0-.58-.2-1.02-1.05-1.02-.53,0-1.06.17-1.44.4l-.29-1.01c.39-.23,1.11-.49,2.02-.49,1.81,0,2.31,1.15,2.31,2.43v2.14Zm-1.51-1.46c-.84,0-1.71.2-1.71,1.05,0,.56.35.8.73.8.37,0,.97-.26.97-1.01v-.84Z"/>
    <path class="cls-1" d="m103.77,122.55h-1.55v-8.43h1.55v8.43Z"/>
    <path class="cls-1" d="m32.04,133.43h-4.51v-8.06h4.34v1.3h-2.79v1.95h2.63v1.27h-2.63v2.24h2.96v1.3Z"/>
    <path class="cls-1" d="m38.14,133.43h-1.55v-3.41c0-.71-.23-1.28-.89-1.28-.42,0-1,.32-1,1.22v3.47h-1.55v-4.08c0-.68-.02-1.24-.04-1.75h1.34l.07.79h.03c.26-.43.84-.91,1.69-.91,1.07,0,1.9.74,1.9,2.38v3.57Z"/>
    <path class="cls-1" d="m44.55,131.77c0,.59.02,1.24.04,1.67h-1.36l-.07-.83h-.03c-.3.58-.93.94-1.65.94-1.32,0-2.26-1.22-2.26-2.99,0-1.99,1.1-3.08,2.36-3.08.68,0,1.17.28,1.4.68h.02v-3.16h1.55v6.76Zm-1.55-1.79c0-.85-.51-1.27-1.03-1.27-.8,0-1.2.82-1.2,1.83s.44,1.76,1.17,1.76c.46,0,1.05-.34,1.05-1.26v-1.07Z"/>
    <path class="cls-1" d="m51.05,130.47c0,2.22-1.43,3.08-2.73,3.08-1.57,0-2.7-1.11-2.7-3.01s1.18-3.07,2.77-3.07,2.66,1.23,2.66,3Zm-2.69-1.86c-.86,0-1.16,1.01-1.16,1.9,0,1.04.4,1.9,1.15,1.9s1.13-.87,1.13-1.91c0-.91-.32-1.89-1.12-1.89Z"/>
    <path class="cls-1" d="m55.24,128.88c-.25-.14-.66-.3-1.1-.3-.47,0-.72.24-.72.56s.22.49.89.78c.99.41,1.45.97,1.45,1.78,0,1.11-.84,1.84-2.3,1.84-.64,0-1.26-.16-1.65-.39l.29-1.12c.3.18.88.39,1.36.39.55,0,.81-.23.81-.59s-.2-.54-.84-.82c-1.09-.44-1.49-1.06-1.49-1.7,0-1.05.84-1.84,2.14-1.84.6,0,1.11.15,1.45.33l-.29,1.09Z"/>
    <path class="cls-1" d="m60.73,133.29c-.26.13-.8.25-1.42.25-1.71,0-2.82-1.11-2.82-2.97,0-1.75,1.13-3.09,3.06-3.09.5,0,.96.12,1.22.22l-.25,1.18c-.2-.09-.48-.19-.91-.19-.97,0-1.54.79-1.54,1.81,0,1.14.66,1.8,1.55,1.8.39,0,.69-.07.94-.19l.17,1.16Z"/>
    <path class="cls-1" d="m66.82,130.47c0,2.22-1.43,3.08-2.73,3.08-1.57,0-2.7-1.11-2.7-3.01s1.18-3.07,2.77-3.07,2.66,1.23,2.66,3Zm-2.69-1.86c-.86,0-1.16,1.01-1.16,1.9,0,1.04.4,1.9,1.15,1.9s1.13-.87,1.13-1.91c0-.91-.32-1.89-1.12-1.89Z"/>
    <path class="cls-1" d="m69.35,128.39c.38-.6.97-.92,1.73-.92,1.28,0,2.22,1.2,2.22,2.99,0,2.15-1.22,3.09-2.4,3.09-.64,0-1.13-.29-1.38-.68h-.02v2.9h-1.55v-6.27c0-.75-.02-1.37-.04-1.91h1.35l.07.8h.02Zm.15,2.68c0,.85.51,1.26,1.04,1.26.79,0,1.19-.78,1.19-1.82s-.4-1.79-1.16-1.79c-.6,0-1.07.57-1.07,1.27v1.09Z"/>
    <path class="cls-1" d="m79.22,127.59l-1.32,4.06c-.65,1.89-1.14,2.91-1.8,3.57-.57.54-1.16.75-1.51.82l-.39-1.31c.25-.07.55-.24.82-.43.51-.37.78-.96.78-1.08,0-.06-.02-.15-.06-.26l-1.96-5.37h1.7l.86,3.05c.09.36.2.76.27,1.09h.03c.06-.31.16-.72.24-1.09l.73-3.05h1.61Z"/>
    <path class="cls-1" d="m32.68,144.12c-.3.15-.95.3-1.78.3-2.42,0-3.76-1.65-3.76-4.04,0-2.82,1.81-4.25,3.95-4.25.87,0,1.44.18,1.67.3l-.3,1.26c-.31-.14-.73-.26-1.29-.26-1.33,0-2.4.91-2.4,2.86,0,1.82.93,2.8,2.39,2.8.48,0,1-.09,1.31-.23l.22,1.25Z"/>
    <path class="cls-1" d="m35.28,144.32h-1.55v-8.43h1.55v8.43Z"/>
    <path class="cls-1" d="m37.44,137.72c-.49,0-.83-.36-.83-.83s.35-.83.83-.83.84.35.84.83-.36.83-.84.83Zm.79,6.6h-1.55v-5.84h1.55v5.84Z"/>
    <path class="cls-1" d="m44.61,144.32h-1.55v-3.41c0-.71-.23-1.28-.89-1.28-.42,0-1,.32-1,1.22v3.47h-1.55v-4.08c0-.68-.02-1.24-.04-1.75h1.34l.07.79h.03c.26-.43.84-.91,1.69-.91,1.07,0,1.9.74,1.9,2.38v3.57Z"/>
    <path class="cls-1" d="m46.76,137.72c-.49,0-.83-.36-.83-.83s.35-.83.83-.83.84.35.84.83-.36.83-.84.83Zm.79,6.6h-1.55v-5.84h1.55v5.84Z"/>
    <path class="cls-1" d="m52.86,144.17c-.26.13-.8.25-1.42.25-1.71,0-2.82-1.11-2.82-2.97,0-1.75,1.13-3.09,3.06-3.09.5,0,.96.12,1.22.22l-.25,1.18c-.2-.09-.48-.19-.91-.19-.97,0-1.54.79-1.54,1.81,0,1.14.66,1.8,1.55,1.8.39,0,.69-.07.94-.19l.17,1.16Z"/>
  </g>
  <polygon class="cls-1" points="28.86 78.12 30.59 75.83 22.26 73.11 22.23 73.1 19.76 76.36 19.56 76.62 19.58 76.64 24.45 83.94 26.18 81.65 26.18 81.65 28.85 78.13 28.86 78.12 28.86 78.12"/>
  <rect class="cls-1" x="25.27" y="79.38" width="10.17" height="5.38" transform="translate(114.1 107.48) rotate(127.17)"/>
  <rect class="cls-1" x="31.58" y="83.78" width="4.43" height="1.8" transform="translate(121.68 108.92) rotate(127.17)"/>
  <path class="cls-1" d="m11.14,32.61l-3.86,1.85s-.45-1.91,1.02-2.69c1.47-.78,2.84.84,2.84.84Z"/>
  <polygon class="cls-1" points="8.73 47.95 3.71 46.39 3.74 48.45 6.38 49.45 8.73 47.95"/>
  <path class="cls-1" d="m1.65,43.11l.73-4.69s-1.98.05-2.33,1.95c-.35,1.91,1.6,2.74,1.6,2.74Z"/>
  <circle class="cls-2" cx="84.01" cy="134.53" r=".3"/>
  <path class="cls-2" d="m84.17,132.37c0,.17-.13.3-.3.3s-.3-.13-.3-.3.13-.3.3-.3.3.13.3.3Z"/>
  <path class="cls-2" d="m83.87,133.56c0,.23-.18.41-.41.41s-.41-.18-.41-.41.18-.41.41-.41.41.18.41.41Z"/>
  <g>
    <path class="cls-1" d="m86.32,135.32c.43-.47.67-1.08.67-1.72,0-1.4-1.13-2.54-2.52-2.54-.5,0-.98.16-1.39.43-.26.27-.42.47-.46.53-.83,1.09-.62,2.63.46,3.48.45.35.99.53,1.53.53.63,0,1.24-.25,1.72-.7h0Z"/>
    <path class="cls-1" d="m90.32,127.94h0c-.08,0-.17,0-.25,0-.2.02-1.99.25-3.22.82-.86.4-1.58.86-2.18,1.31,1.84.11,3.31,1.64,3.31,3.52,0,.09-.02.18-.03.28.29-.2.63-.39,1.01-.57.23-.11.94-.28,1.57-.37h0s.21,0,.21,0c1.84,0,3.48.94,3.5.95l1.27-2.16,1.28-2.15c-.3-.18-3.11-1.8-6.48-1.64Z"/>
  </g>
  <path class="cls-2" d="m86.05,133.05c0,.39-.31.7-.7.7s-.7-.31-.7-.7.31-.7.7-.7.7.31.7.7Z"/>
  <circle class="cls-2" cx="84.01" cy="135.08" r=".3"/>
  <path class="cls-2" d="m83.9,132.39c0,.17-.13.3-.3.3s-.3-.13-.3-.3.13-.3.3-.3.3.13.3.3Z"/>
  <path class="cls-2" d="m83.71,133.83c0,.23-.18.41-.41.41s-.41-.18-.41-.41.18-.41.41-.41.41.18.41.41Z"/>
  <circle class="cls-2" cx="85.29" cy="134.51" r=".49"/>
</svg>