<?xml version="1.0" encoding="UTF-8"?>
<svg id="_レイヤー_1" data-name="レイヤー 1" xmlns="http://www.w3.org/2000/svg" viewBox="0 0 685.99 121.61">
  <defs>
    <style>
      .cls-1, .cls-2 {
        fill: #fff;
      }

      .cls-3 {
        fill: #efea3c;
      }

      .cls-4 {
        font-family: KozGoPr6N-Regular-83pv-RKSJ-H, 'Kozuka Gothic Pr6N';
      }

      .cls-2 {
        font-size: 32px;
      }

      .cls-5 {
        font-family: HGMaruGothicMPRO, HGMaruGothicMPRO;
      }
    </style>
  </defs>
  <rect class="cls-1" x="82.5" y="111.05" width="3.35" height="4.02" transform="translate(-55.17 134.32) rotate(-62)"/>
  <path class="cls-1" d="m98.6,121.61c-1.67,0-2.92-.55-3.06-.62l-.09-.04-1.51-.8,1.57-2.96,1.45.77c.13.05.8.3,1.63.3s1.52-.23,2.14-.68c.2-.14.37-.3.53-.47l2.48,2.25c-.31.34-.66.65-1.04.93-1.2.87-2.59,1.32-4.11,1.32Zm-5.28-1.79l-7.52-4,1.57-2.96,7.52,4-1.57,2.96Zm11.02-1.2l-2.79-1.87c.51-.77.59-1.63.59-2.08,0-.25-.02-.4-.02-.4l-.79-4.58,3.3-.57.79,4.6c.01.07.07.43.07.95,0,1.01-.2,2.52-1.16,3.94Zm-3.12-9.63l-1.44-8.39,3.3-.57,1.44,8.39-3.3.57Zm-1.56-9.09l-1.44-8.39,3.3-.57,1.44,8.39-3.3.57Zm-1.56-9.09l-1.44-8.39,3.3-.57,1.44,8.39-3.3.57Z"/>
  <polygon class="cls-1" points="96.53 81.7 95.7 76.86 99.24 73.46 101.56 75.87 99.31 78.05 99.84 81.14 96.53 81.7"/>
  <path class="cls-1" d="m102.04,75.42l-2.32-2.42,5.66-5.45,2.32,2.42-5.66,5.45Zm6.13-5.9l-2.32-2.42,5.66-5.45,2.32,2.42-5.66,5.45Zm6.13-5.9l-2.32-2.42,5.66-5.45,2.32,2.42-5.66,5.45Zm6.13-5.9l-2.32-2.42,4.73-4.56c.06-.07.24-.3.43-.65l2.93,1.62c-.42.77-.84,1.24-.92,1.32l-.07.07-4.79,4.61Zm6.14-6.74l-3.08-1.32c.22-.52.33-1.03.33-1.54,0-.36-.06-.73-.17-1.08-.28-.87-.85-1.53-1.69-1.97l1.55-2.97c1.63.85,2.78,2.2,3.33,3.9.22.69.34,1.4.34,2.12,0,.96-.2,1.92-.6,2.86Zm-5.04-6.09c-.33-.13-.57-.17-.6-.18l-6.78-.99.48-3.32,6.74.98c.33.03.76.14,1.37.38l-.96,2.48.15.31-.33.17-.07.17Zm-8.03-1.26l-7.77-1.13.48-3.32,7.77,1.13-.48,3.32Zm-8.42-1.22l-7.77-1.13.48-3.32,7.77,1.13-.48,3.32Zm-8.42-1.22l-7.77-1.13.48-3.32,7.77,1.13-.48,3.32Z"/>
  <polygon class="cls-1" points="88.23 39.95 83.38 39.25 81.22 34.83 84.24 33.36 85.61 36.18 88.72 36.64 88.23 39.95"/>
  <path class="cls-1" d="m46.13,34.26l-3.01-1.48,3.48-7.06,3.01,1.48-3.48,7.06Zm34.81-.02l-3.45-7.07,3.01-1.47,3.45,7.07-3.01,1.47Zm-31.04-7.63l-3.01-1.48,3.48-7.06,3.01,1.48-3.48,7.06Zm27.3-.03l-3.45-7.07,3.01-1.47,3.45,7.07-3.01,1.47Zm-23.53-7.61l-3.01-1.48,3.48-7.06,3.01,1.48-3.48,7.06Zm19.79-.05l-3.45-7.07,3.01-1.47,3.45,7.07-3.01,1.47Zm-16.01-7.59l-3.01-1.48,3.02-6.12c.05-.09.3-.59.81-1.2l2.58,2.14c-.26.31-.38.55-.39.55l-3.01,6.1Zm12.28-.07l-2.92-5.99c-.05-.07-.2-.3-.45-.57l2.48-2.26c.56.61.85,1.12.91,1.21l.04.09,2.95,6.06-3.01,1.47Zm-3.72-6.91c-.74-.66-1.57-1-2.48-1-.9,0-1.69.33-2.36.97l-2.32-2.42c1.3-1.25,2.92-1.91,4.69-1.91,1.73,0,3.37.64,4.72,1.85l-2.24,2.5Z"/>
  <polygon class="cls-1" points="37.53 40.11 37.06 36.79 41.44 36.18 42.83 33.37 45.84 34.85 43.66 39.25 37.53 40.11"/>
  <path class="cls-1" d="m9.31,42.22c-.06.06-2.18,2.16-1.81,5.5.79,7.11,8.35,12.72,8.43,12.78l-1.98,2.71c-.36-.26-8.82-6.52-9.78-15.11-.58-5.24,2.25-7.64,2.37-7.74"/>
  <path class="cls-1" d="m36.86,40.21l-.45-3.35s-11.7-2.58-14.58-5.12c-.37-.33-1.18-4.63-1.64-5.06-.47-.42-6.19.41-6.19.41l4.7,3.1-.65,1.37,1.64.32-.28,6.4-1.58.11.49,1.45s6.84.35,10.32.37c3.48.02,8.21,0,8.21,0Z"/>
  <polygon class="cls-1" points="34.68 36.16 32.27 33.78 31.32 35.02 34.68 36.16"/>
  <polygon class="cls-1" points="30.5 34.62 31.41 33.36 28.79 30.85 26.49 33.25 30.5 34.62"/>
  <polygon class="cls-1" points="18.98 25.57 18.77 23.99 15.32 24.38 15.6 26.05 18.98 25.57"/>
  <polygon class="cls-1" points="12.51 26.04 11.88 24.72 8.4 25.47 8.61 26.37 12.51 26.04"/>
  <path class="cls-1" d="m6.94,30.14l.65,1.81-1.94.27-.15,4.67,1.81.36-.73,1.72,3.97,2.54,1.17-1.43,1.2,1.52,4.17-2.15-.71-1.88,2-.24.19-4.65-1.83-.36.69-1.64-4.04-2.59-1.24,1.38-1.05-1.49-4.17,2.15Zm8.78,2.74c1.07,2.06.26,4.6-1.81,5.66-2.06,1.07-4.6.26-5.66-1.81-1.07-2.06-.26-4.6,1.81-5.66,2.06-1.07,4.6-.26,5.66,1.81Z"/>
  <path class="cls-1" d="m10.54,32.01c1.55-.8,3.45-.19,4.25,1.36.8,1.55.19,3.45-1.36,4.25-1.55.8-3.45.19-4.25-1.36-.8-1.55-.19-3.45,1.36-4.25Z"/>
  <polygon class="cls-1" points="12.31 27.97 12.95 27.16 11.83 27.25 12.31 27.97"/>
  <path class="cls-1" d="m5.49,38.96l.45-.91-1.54-.38.29-6.36,1.55-.16-.59-1.45,4.38-2.26s-.62-.25-1.89.28c-1.27.54-3.97,1.92-3.97,1.92l-2.82.97-1.35,6.43,1.34.78,4.15,1.14Z"/>
  <g>
    <path class="cls-1" d="m27.39,83.8h-1.23l-.12-2.61c-.03-.89-.08-1.8-.07-2.64h-.03c-.19.8-.44,1.69-.66,2.44l-.82,2.71h-.98l-.74-2.67c-.22-.76-.43-1.67-.58-2.48h-.03c-.02.85-.06,1.84-.1,2.67l-.13,2.58h-1.18l.45-6.7h1.6l.72,2.52c.22.81.41,1.6.56,2.36h.03c.16-.75.36-1.56.58-2.36l.76-2.52h1.59l.38,6.7Z"/>
    <path class="cls-1" d="m32.08,82.64c0,.43.02.85.07,1.15h-1.16l-.08-.51h-.03c-.28.38-.75.6-1.29.6-.9,0-1.46-.67-1.46-1.46,0-1.25,1.11-1.83,2.65-1.83,0-.48-.17-.85-.87-.85-.44,0-.88.14-1.19.33l-.24-.84c.32-.19.92-.41,1.68-.41,1.51,0,1.92.96,1.92,2.02v1.78Zm-1.26-1.21c-.7,0-1.42.17-1.42.87,0,.46.29.66.61.66.3,0,.81-.22.81-.84v-.7Z"/>
    <path class="cls-1" d="m34.54,79.52c.28-.43.73-.69,1.35-.69,1.07,0,1.79.99,1.79,2.44,0,1.76-.98,2.62-1.99,2.62-.54,0-1-.22-1.31-.77h-.03l-.06.67h-1.1c.02-.35.03-.9.03-1.39v-5.61h1.29v2.74h.02Zm-.02,2.34c0,.55.36,1,.87,1,.63,0,.98-.58.98-1.53,0-.83-.32-1.47-.98-1.47-.44,0-.87.42-.87,1.05v.95Z"/>
    <path class="cls-1" d="m42.25,83.6c-.4.17-.97.28-1.57.28-1.5,0-2.35-.94-2.35-2.45,0-1.39.8-2.6,2.22-2.6,1.18,0,1.94.84,1.94,2.41,0,.19,0,.37-.03.51h-2.9c.03.83.63,1.16,1.33,1.16.48,0,.85-.09,1.19-.2l.18.89Zm-.95-2.75c0-.51-.19-1.12-.83-1.12s-.88.64-.92,1.12h1.74Z"/>
    <path class="cls-1" d="m25.75,92.58c-.39.15-1.15.33-1.91.33-1.02,0-1.8-.26-2.36-.82-.58-.57-.91-1.48-.91-2.55,0-2.27,1.51-3.48,3.43-3.48.68,0,1.25.12,1.57.28l-.27,1.06c-.31-.14-.69-.24-1.28-.24-1.19,0-2.1.73-2.1,2.35s.83,2.34,1.94,2.34c.31,0,.55-.04.66-.1v-1.64h-.97v-1.02h2.2v3.48Z"/>
    <path class="cls-1" d="m31.07,90.38c0,1.85-1.19,2.56-2.27,2.56-1.31,0-2.25-.92-2.25-2.5s.98-2.55,2.3-2.55,2.21,1.02,2.21,2.49Zm-2.24-1.54c-.71,0-.97.84-.97,1.58,0,.86.33,1.58.96,1.58s.94-.72.94-1.59c0-.76-.27-1.57-.93-1.57Z"/>
    <path class="cls-1" d="m34.65,89.14c-.1-.02-.2-.03-.33-.03-.58,0-1.03.39-1.03,1.22v2.51h-1.29v-3.34c0-.6-.02-1.08-.03-1.52h1.11l.05.85h.03c.23-.63.75-.95,1.2-.95.12,0,.2,0,.29.03v1.23Z"/>
    <path class="cls-1" d="m39.39,87.99l-1.1,3.37c-.54,1.57-.95,2.42-1.5,2.97-.47.45-.97.63-1.26.68l-.32-1.09c.21-.06.45-.2.68-.36.43-.31.64-.8.64-.9,0-.05-.02-.12-.05-.22l-1.63-4.46h1.41l.71,2.54c.08.3.17.64.23.91h.03c.05-.26.13-.6.2-.91l.61-2.54h1.34Z"/>
    <path class="cls-1" d="m44.24,90.38c0,1.85-1.19,2.56-2.27,2.56-1.31,0-2.25-.92-2.25-2.5s.98-2.55,2.3-2.55,2.21,1.02,2.21,2.49Zm-2.24-1.54c-.71,0-.97.84-.97,1.58,0,.86.33,1.58.96,1.58s.94-.72.94-1.59c0-.76-.27-1.57-.93-1.57Z"/>
    <path class="cls-1" d="m49.27,91.36c0,.58.03,1.07.04,1.48h-1.12l-.06-.64h-.03c-.2.31-.65.74-1.39.74-.92,0-1.55-.6-1.55-2.06v-2.89h1.29v2.7c0,.73.21,1.19.74,1.19.42,0,.79-.36.79-.91v-2.99h1.29v3.37Z"/>
    <path class="cls-1" d="m54.74,92.85h-1.53l-1.13-2.07-.34.46v1.61h-1.29v-7.01h1.29v4.27h.03c.1-.22.21-.42.32-.6l.97-1.52h1.5l-1.59,2,1.78,2.86Z"/>
    <path class="cls-1" d="m58.86,91.7c0,.43.02.85.07,1.15h-1.16l-.08-.51h-.03c-.28.38-.75.6-1.29.6-.9,0-1.46-.67-1.46-1.46,0-1.25,1.11-1.83,2.65-1.83,0-.48-.17-.85-.87-.85-.44,0-.88.14-1.19.33l-.24-.84c.32-.19.92-.41,1.68-.41,1.51,0,1.92.96,1.92,2.02v1.78Zm-1.26-1.21c-.7,0-1.42.17-1.42.87,0,.46.29.66.61.66.3,0,.81-.22.81-.84v-.7Z"/>
    <path class="cls-1" d="m64.31,92.85h-1.53l-1.13-2.07-.34.46v1.61h-1.29v-7.01h1.29v4.27h.03c.1-.22.21-.42.32-.6l.97-1.52h1.5l-1.59,2,1.78,2.86Z"/>
    <path class="cls-1" d="m68.9,91.36c0,.58.03,1.07.04,1.48h-1.12l-.06-.64h-.03c-.2.31-.65.74-1.39.74-.92,0-1.55-.6-1.55-2.06v-2.89h1.29v2.7c0,.73.21,1.19.74,1.19.42,0,.79-.36.79-.91v-2.99h1.29v3.37Z"/>
    <path class="cls-1" d="m25.75,101.64c-.39.15-1.15.33-1.91.33-1.02,0-1.8-.26-2.36-.82-.58-.57-.91-1.48-.91-2.55,0-2.27,1.51-3.48,3.43-3.48.68,0,1.25.12,1.57.28l-.27,1.06c-.31-.14-.69-.24-1.28-.24-1.19,0-2.1.73-2.1,2.35s.83,2.34,1.94,2.34c.31,0,.55-.04.66-.1v-1.64h-.97v-1.02h2.2v3.48Z"/>
    <path class="cls-1" d="m30.46,100.75c0,.43.02.85.07,1.15h-1.16l-.08-.51h-.03c-.28.38-.75.6-1.29.6-.9,0-1.46-.67-1.46-1.46,0-1.25,1.11-1.83,2.65-1.83,0-.48-.17-.85-.87-.85-.44,0-.88.14-1.19.33l-.24-.84c.32-.19.92-.41,1.68-.41,1.51,0,1.92.96,1.92,2.02v1.78Zm-1.26-1.21c-.7,0-1.42.17-1.42.87,0,.46.29.66.61.66.3,0,.81-.22.81-.84v-.7Z"/>
    <path class="cls-1" d="m34.17,98.12c-.21-.11-.55-.25-.92-.25-.39,0-.6.2-.6.46s.18.41.74.64c.82.34,1.2.81,1.2,1.48,0,.92-.7,1.53-1.91,1.53-.53,0-1.05-.13-1.37-.32l.24-.93c.25.15.73.32,1.13.32.45,0,.67-.19.67-.49s-.17-.45-.7-.68c-.91-.37-1.24-.88-1.24-1.41,0-.87.7-1.53,1.78-1.53.5,0,.92.12,1.2.27l-.24.91Z"/>
    <path class="cls-1" d="m35.68,96.15l1.27-.37v1.26h1.07v.95h-1.07v2.11c0,.58.18.83.58.83.18,0,.29-.02.42-.04l.02.98c-.17.07-.49.11-.86.11-1.39,0-1.42-1.21-1.42-1.75v-2.24h-.64v-.95h.64v-.89Z"/>
    <path class="cls-1" d="m41.48,98.19c-.1-.02-.2-.03-.33-.03-.58,0-1.03.39-1.03,1.22v2.51h-1.29v-3.34c0-.6-.02-1.08-.03-1.52h1.11l.05.85h.03c.23-.63.75-.95,1.2-.95.12,0,.2,0,.29.03v1.23Z"/>
    <path class="cls-1" d="m46.43,99.43c0,1.85-1.19,2.56-2.27,2.56-1.31,0-2.25-.92-2.25-2.5s.98-2.55,2.3-2.55,2.21,1.02,2.21,2.49Zm-2.24-1.54c-.71,0-.97.84-.97,1.58,0,.86.33,1.58.96,1.58s.94-.72.94-1.59c0-.76-.27-1.57-.93-1.57Z"/>
    <path class="cls-1" d="m48,96.41c-.41,0-.69-.3-.69-.69s.29-.69.69-.69.7.29.7.69-.3.69-.7.69Zm.65,5.49h-1.29v-4.86h1.29v4.86Z"/>
    <path class="cls-1" d="m53.96,101.9h-1.29v-2.83c0-.59-.19-1.06-.74-1.06-.35,0-.83.27-.83,1.01v2.89h-1.29v-3.39c0-.57-.02-1.03-.03-1.46h1.12l.06.65h.03c.22-.36.7-.76,1.4-.76.89,0,1.58.62,1.58,1.98v2.97Z"/>
    <path class="cls-1" d="m55.32,96.15l1.27-.37v1.26h1.07v.95h-1.07v2.11c0,.58.18.83.58.83.18,0,.29-.02.42-.04l.02.98c-.17.07-.49.11-.86.11-1.39,0-1.42-1.21-1.42-1.75v-2.24h-.64v-.95h.64v-.89Z"/>
    <path class="cls-1" d="m62.13,101.71c-.4.17-.97.28-1.57.28-1.5,0-2.35-.94-2.35-2.45,0-1.39.8-2.6,2.22-2.6,1.18,0,1.94.84,1.94,2.41,0,.19,0,.37-.03.51h-2.9c.03.83.63,1.16,1.32,1.16.48,0,.85-.09,1.19-.2l.18.89Zm-.95-2.75c0-.51-.19-1.12-.83-1.12s-.88.65-.92,1.12h1.74Z"/>
    <path class="cls-1" d="m65.82,98.12c-.21-.11-.55-.25-.92-.25-.39,0-.6.2-.6.46s.18.41.74.64c.82.34,1.2.81,1.2,1.48,0,.92-.7,1.53-1.91,1.53-.53,0-1.05-.13-1.37-.32l.24-.93c.25.15.73.32,1.13.32.45,0,.67-.19.67-.49s-.17-.45-.7-.68c-.91-.37-1.24-.88-1.24-1.41,0-.87.7-1.53,1.78-1.53.5,0,.92.12,1.2.27l-.24.91Z"/>
    <path class="cls-1" d="m67.34,96.15l1.27-.37v1.26h1.07v.95h-1.07v2.11c0,.58.18.83.58.83.18,0,.29-.02.42-.04l.02.98c-.17.07-.49.11-.86.11-1.39,0-1.42-1.21-1.42-1.75v-2.24h-.64v-.95h.64v-.89Z"/>
    <path class="cls-1" d="m71.12,96.41c-.41,0-.69-.3-.69-.69s.29-.69.69-.69.7.29.7.69-.3.69-.7.69Zm.65,5.49h-1.29v-4.86h1.29v4.86Z"/>
    <path class="cls-1" d="m77.08,101.9h-1.29v-2.83c0-.59-.19-1.06-.74-1.06-.35,0-.83.27-.83,1.01v2.89h-1.29v-3.39c0-.57-.02-1.03-.03-1.46h1.12l.06.65h.03c.22-.36.7-.76,1.4-.76.89,0,1.58.62,1.58,1.98v2.97Z"/>
    <path class="cls-1" d="m81.86,100.75c0,.43.02.85.07,1.15h-1.16l-.08-.51h-.03c-.28.38-.75.6-1.29.6-.9,0-1.46-.67-1.46-1.46,0-1.25,1.11-1.83,2.65-1.83,0-.48-.17-.85-.87-.85-.44,0-.88.14-1.19.33l-.24-.84c.32-.19.92-.41,1.68-.41,1.51,0,1.92.96,1.92,2.02v1.78Zm-1.26-1.21c-.7,0-1.42.17-1.42.87,0,.46.29.66.61.66.31,0,.81-.22.81-.84v-.7Z"/>
    <path class="cls-1" d="m84.3,101.9h-1.29v-7.01h1.29v7.01Z"/>
    <path class="cls-1" d="m24.66,110.95h-3.75v-6.7h3.61v1.08h-2.32v1.62h2.19v1.05h-2.19v1.87h2.46v1.08Z"/>
    <path class="cls-1" d="m29.73,110.95h-1.29v-2.83c0-.59-.19-1.06-.74-1.06-.35,0-.83.27-.83,1.01v2.89h-1.29v-3.39c0-.57-.02-1.03-.03-1.46h1.12l.06.65h.03c.22-.36.7-.76,1.4-.76.89,0,1.58.62,1.58,1.98v2.97Z"/>
    <path class="cls-1" d="m35.05,109.56c0,.49.02,1.03.03,1.39h-1.13l-.06-.69h-.03c-.25.48-.78.78-1.37.78-1.1,0-1.88-1.01-1.88-2.48,0-1.66.92-2.56,1.96-2.56.57,0,.98.24,1.17.57h.02v-2.62h1.29v5.62Zm-1.29-1.49c0-.71-.43-1.05-.85-1.05-.66,0-.99.68-.99,1.53s.37,1.46.98,1.46c.38,0,.87-.28.87-1.05v-.89Z"/>
    <path class="cls-1" d="m40.46,108.48c0,1.85-1.19,2.56-2.27,2.56-1.31,0-2.25-.92-2.25-2.5s.98-2.55,2.3-2.55,2.21,1.02,2.21,2.49Zm-2.24-1.54c-.71,0-.97.84-.97,1.58,0,.86.33,1.58.96,1.58s.94-.72.94-1.59c0-.76-.27-1.57-.93-1.57Z"/>
    <path class="cls-1" d="m43.94,107.17c-.21-.11-.55-.25-.92-.25-.39,0-.6.2-.6.46s.18.41.74.65c.82.34,1.2.81,1.2,1.48,0,.92-.7,1.53-1.91,1.53-.53,0-1.05-.13-1.37-.32l.24-.93c.25.15.73.32,1.13.32.45,0,.67-.19.67-.49s-.17-.45-.7-.68c-.91-.37-1.24-.88-1.24-1.41,0-.87.7-1.53,1.78-1.53.5,0,.92.12,1.2.27l-.24.91Z"/>
    <path class="cls-1" d="m48.51,110.83c-.22.1-.66.21-1.18.21-1.42,0-2.34-.92-2.34-2.47,0-1.46.94-2.57,2.55-2.57.42,0,.8.1,1.01.18l-.21.99c-.17-.08-.4-.16-.76-.16-.81,0-1.28.65-1.28,1.51,0,.95.55,1.5,1.29,1.5.32,0,.58-.06.78-.16l.14.97Z"/>
    <path class="cls-1" d="m53.58,108.48c0,1.85-1.19,2.56-2.27,2.56-1.31,0-2.25-.92-2.25-2.5s.98-2.55,2.3-2.55,2.21,1.02,2.21,2.49Zm-2.24-1.54c-.71,0-.97.84-.97,1.58,0,.86.33,1.58.96,1.58s.94-.72.94-1.59c0-.76-.27-1.57-.93-1.57Z"/>
    <path class="cls-1" d="m55.68,106.76c.31-.5.81-.77,1.44-.77,1.06,0,1.85.99,1.85,2.48,0,1.79-1.01,2.57-2,2.57-.53,0-.94-.24-1.15-.57h-.02v2.41h-1.29v-5.21c0-.63-.02-1.14-.03-1.59h1.12l.06.66h.02Zm.12,2.23c0,.71.43,1.05.86,1.05.65,0,.99-.65.99-1.52s-.33-1.49-.97-1.49c-.5,0-.89.47-.89,1.05v.91Z"/>
    <path class="cls-1" d="m63.89,106.09l-1.1,3.37c-.54,1.57-.95,2.42-1.5,2.97-.47.45-.97.63-1.26.68l-.32-1.09c.21-.06.45-.2.68-.36.43-.31.64-.8.64-.9,0-.05-.02-.12-.05-.22l-1.63-4.46h1.41l.71,2.54c.08.3.17.64.23.91h.03c.05-.26.13-.6.2-.91l.61-2.54h1.34Z"/>
    <path class="cls-1" d="m25.19,119.84c-.25.12-.79.25-1.48.25-2.01,0-3.13-1.37-3.13-3.36,0-2.34,1.51-3.53,3.29-3.53.72,0,1.19.15,1.39.25l-.25,1.05c-.26-.11-.61-.22-1.07-.22-1.11,0-2,.76-2,2.38,0,1.52.78,2.33,1.99,2.33.4,0,.83-.08,1.09-.19l.18,1.04Z"/>
    <path class="cls-1" d="m27.35,120h-1.29v-7.01h1.29v7.01Z"/>
    <path class="cls-1" d="m29.14,114.51c-.41,0-.69-.3-.69-.69s.29-.69.69-.69.7.29.7.69-.3.69-.7.69Zm.65,5.49h-1.29v-4.86h1.29v4.86Z"/>
    <path class="cls-1" d="m35.11,120h-1.29v-2.83c0-.59-.19-1.06-.74-1.06-.35,0-.83.27-.83,1.01v2.89h-1.29v-3.39c0-.57-.02-1.03-.03-1.46h1.12l.06.65h.03c.22-.36.7-.76,1.4-.76.89,0,1.58.62,1.58,1.98v2.97Z"/>
    <path class="cls-1" d="m36.89,114.51c-.41,0-.69-.3-.69-.69s.29-.69.69-.69.7.29.7.69-.3.69-.7.69Zm.65,5.49h-1.29v-4.86h1.29v4.86Z"/>
    <path class="cls-1" d="m41.97,119.88c-.22.1-.66.21-1.18.21-1.42,0-2.34-.92-2.34-2.47,0-1.46.94-2.57,2.55-2.57.42,0,.8.1,1.01.18l-.21.99c-.17-.08-.4-.16-.76-.16-.81,0-1.28.65-1.28,1.51,0,.95.55,1.5,1.29,1.5.32,0,.58-.06.78-.16l.14.97Z"/>
  </g>
  <polygon class="cls-1" points="22.01 64.96 23.45 63.05 16.52 60.79 16.5 60.78 14.45 63.49 14.28 63.71 14.3 63.73 18.34 69.79 19.78 67.89 19.78 67.89 22 64.97 22.01 64.96 22.01 64.96"/>
  <rect class="cls-1" x="19.03" y="66.01" width="8.46" height="4.47" transform="translate(91.69 90.95) rotate(127.17)"/>
  <rect class="cls-1" x="24.27" y="69.66" width="3.68" height="1.49" transform="translate(97.99 92.14) rotate(127.17)"/>
  <path class="cls-1" d="m7.28,27.11l-3.21,1.54s-.38-1.59.85-2.23c1.22-.65,2.36.7,2.36.7Z"/>
  <polygon class="cls-1" points="5.27 39.87 1.1 38.57 1.12 40.29 3.32 41.12 5.27 39.87"/>
  <polygon class="cls-1" points="81.9 113.77 78.35 111.85 79.92 108.85 83.47 110.76 81.9 113.77"/>
  <path class="cls-1" d="m73.35,106.47h0c-.07,0-.14,0-.21,0-.17.02-1.66.21-2.67.69-.72.33-1.32.72-1.82,1.09,1.53.09,2.75,1.36,2.75,2.92,0,.08-.02.15-.02.23.24-.16.53-.33.84-.48.19-.09.78-.23,1.31-.31h0s.18,0,.18,0c1.53,0,2.89.78,2.91.79l1.05-1.79,1.06-1.79c-.25-.15-2.59-1.49-5.39-1.36Z"/>
  <path class="cls-1" d="m70.58,111.18c0-1.16-.94-2.11-2.1-2.11-.41,0-.81.13-1.15.36-.21.23-.35.39-.39.44-.69.91-.52,2.19.38,2.89.38.29.83.44,1.27.44.52,0,1.03-.21,1.43-.58h0c.36-.39.56-.9.56-1.44Zm-2.81-1.25c.14,0,.25.11.25.25s-.11.25-.25.25-.25-.11-.25-.25.11-.25.25-.25Zm-.25,1.79c-.19,0-.34-.15-.34-.34s.15-.34.34-.34.34.15.34.34-.15.34-.34.34Zm.59.94c-.14,0-.25-.11-.25-.25s.11-.25.25-.25.25.11.25.25-.11.25-.25.25Zm1.06-.33c-.22,0-.4-.18-.4-.4s.18-.4.4-.4.4.18.4.4-.18.4-.4.4Zm.04-1.03c-.32,0-.58-.26-.58-.58s.26-.58.58-.58.58.26.58.58-.26.58-.58.58Z"/>
  <path class="cls-3" d="m69.99,112.6h0c-.39.37-.89.58-1.41.58-.44,0-.88-.14-1.25-.43-.88-.69-1.05-1.95-.37-2.84.02-.03.08-.1.16-.19l-5.57,4.29s-1.4,2.77,1.11,4.73c2.51,1.96,5.07-.13,5.07-.13l2.49-6.31c-.07.11-.14.21-.23.3Z"/>
  <text class="cls-2" transform="translate(141.99 80.3)"><tspan class="cls-5" x="0" y="0">まべ五稜郭消化器</tspan><tspan class="cls-4" x="256" y="0">・</tspan><tspan class="cls-5" x="288" y="0">内視鏡クリニック</tspan></text>
</svg>