<?xml version="1.0" encoding="UTF-8"?>
<svg id="_レイヤー_1" data-name="レイヤー 1" xmlns="http://www.w3.org/2000/svg" xmlns:xlink="http://www.w3.org/1999/xlink" viewBox="0 0 267.37 243.82">
  <defs>
    <style>
      .cls-1, .cls-2, .cls-3, .cls-4, .cls-5, .cls-6, .cls-7, .cls-8, .cls-9, .cls-10 {
        fill: none;
      }

      .cls-2 {
        stroke-dasharray: 0 0 3.82 2.29;
      }

      .cls-2, .cls-3, .cls-4, .cls-5, .cls-6, .cls-7, .cls-8, .cls-9, .cls-10 {
        stroke-miterlimit: 10;
      }

      .cls-2, .cls-3, .cls-6, .cls-8 {
        stroke: #e71f19;
      }

      .cls-2, .cls-3, .cls-6, .cls-8, .cls-9, .cls-10 {
        stroke-linecap: round;
      }

      .cls-11 {
        letter-spacing: -.01em;
      }

      .cls-12 {
        letter-spacing: -.04em;
      }

      .cls-13 {
        clip-path: url(#clippath);
      }

      .cls-14, .cls-15 {
        fill: #040000;
      }

      .cls-16, .cls-17, .cls-18 {
        fill: #f39800;
      }

      .cls-19 {
        fill: #c9caca;
      }

      .cls-20 {
        letter-spacing: -.06em;
      }

      .cls-17 {
        font-family: NotoSansJP-Regular, 'NotoSansJP Regular-90ms-RKSJ-H';
      }

      .cls-17, .cls-18, .cls-15 {
        font-size: 7.52px;
      }

      .cls-21 {
        letter-spacing: -.16em;
      }

      .cls-4 {
        stroke: #040000;
      }

      .cls-4, .cls-5 {
        stroke-width: .75px;
      }

      .cls-5, .cls-7 {
        stroke: #c9caca;
      }

      .cls-18 {
        font-family: NotoSansJP-Bold, 'NotoSansJP Bold-90ms-RKSJ-H';
        font-weight: 700;
      }

      .cls-6 {
        stroke-dasharray: 0 0 5.14 3.08;
      }

      .cls-22 {
        letter-spacing: -.11em;
      }

      .cls-23 {
        letter-spacing: -.05em;
      }

      .cls-24 {
        letter-spacing: -.1em;
      }

      .cls-25 {
        letter-spacing: -.1em;
      }

      .cls-26 {
        letter-spacing: -.09em;
      }

      .cls-15 {
        font-family: NotoSansJP-Light, 'NotoSansJP Light-90ms-RKSJ-H';
        font-weight: 300;
      }

      .cls-27 {
        letter-spacing: -.15em;
      }

      .cls-28 {
        letter-spacing: -.25em;
      }

      .cls-29 {
        letter-spacing: 0em;
      }

      .cls-8 {
        stroke-dasharray: 0 0 4.85 2.91;
      }

      .cls-9 {
        stroke: #74bb36;
      }

      .cls-9, .cls-10 {
        stroke-dasharray: 0 0 5 3;
      }

      .cls-10 {
        stroke: #297ec3;
      }
    </style>
    <clipPath id="clippath">
      <rect class="cls-1" x=".5" y=".5" width="266.37" height="242.82"/>
    </clipPath>
  </defs>
  <g class="cls-13">
    <g>
      <path class="cls-19" d="m195.01,38.17c-3.4,0-7.06-2.37-7.23-2.48l-.07-.06-18.62-21.3-26.6,11.55c-.1.08-3.89,2.67-6.91,1.03-3-1.63-3.43-5.65-3.45-5.82l-.97-29.72-26.1-8.92c-.27-.14-5.33-2.83-6.44-6.04-1.11-3.21,1.34-8.34,1.45-8.56l24.65-42.3-.64-48.47c-.01-.12-.26-3.63,1.92-7.51,2.24-3.98,8.87-3.4,9.15-3.37l48.68,11.45,47.68-17.16c.2-.07,4.91-1.75,8.73.84,3.78,2.56,4.77,7.2,4.81,7.39l4.77,48.99,29.92,39.64c.08.17,2,4.25,1.26,7.68-.74,3.43-5.16,6.95-5.35,7.1l-.08.05-44.81,19.55-27.17,41.32c-.17.21-3.65,4.28-7.32,5.01-.41.08-.82.12-1.24.12Zm-6.79-3.06c.46.29,4.67,2.87,7.89,2.23,3.42-.68,6.85-4.7,6.88-4.74l27.27-41.46.1-.04,44.87-19.57c.42-.34,4.4-3.63,5.05-6.65.65-3.03-1.02-6.8-1.19-7.18l-29.98-39.71-4.79-49.15s-.97-4.51-4.5-6.9c-3.5-2.37-8.03-.77-8.07-.76l-47.88,17.24-.1-.02-48.73-11.47h0s-6.4-.55-8.4,3.01c-2.07,3.67-1.83,7.09-1.83,7.12l.64,48.7-.05.09-24.69,42.36s-2.42,5.05-1.4,7.98c1.02,2.93,5.99,5.58,6.04,5.61l26.52,9.06v.25s.98,29.94.98,29.94c0,.01.42,3.79,3.08,5.23,2.63,1.43,6.18-1,6.22-1.03l27.15-11.79,18.93,21.66Z"/>
      <rect class="cls-19" x="-19.49" y="-86.78" width="238.55" height="2.89" transform="translate(126.21 43.28) rotate(-61.08)"/>
      <polygon class="cls-19" points="50.79 126.95 21.73 -137.96 25.08 -138.31 54.14 126.61 50.79 126.95"/>
      <path class="cls-19" d="m309,58.96c-36.31-4.48-91.01-11.11-94.49-11.22-.02.02-.08.07-.16.11-1.93,1.21-6.46,4.06-47.35,3.23-45.21-.91-70.57-13.85-73.71-15.54L-9.6,28.87l.19-2.89,103.55,6.72.29.16c.26.14,26.08,14.4,72.64,15.34,26.57.53,41.95-.41,45.75-2.79.35-.22.74-.47,1.34-.54,1.94-.25,73.35,8.53,95.2,11.23l-.35,2.87Z"/>
      <rect class="cls-19" x="280.02" y="-10.08" width="2.89" height="172.72" transform="translate(-.61 150.28) rotate(-29.86)"/>
      <polygon class="cls-19" points="2.47 152.23 .5 150.11 49.62 104.55 57.43 101.75 111.28 -3.34 113.86 -2.02 59.49 104.08 51.15 107.08 2.47 152.23"/>
      <rect class="cls-19" x=".17" y="128.7" width="23.98" height="2.89"/>
      <rect class="cls-19" x="52.27" y="116.77" width="249.19" height="2.89" transform="translate(-6.83 10.92) rotate(-3.47)"/>
      <polygon class="cls-19" points="-1.24 219.71 -.96 216.83 270.16 246.54 269.88 249.43 -1.24 219.71"/>
      <polygon class="cls-19" points="41.09 310.87 38.21 310.57 50.76 125.55 53.64 125.85 41.09 310.87"/>
      <rect class="cls-19" x="177.5" y="49.54" width=".72" height="68.6" transform="translate(-8.15 20.08) rotate(-6.32)"/>
      <rect class="cls-19" x="243.24" y="49.69" width=".72" height="64.43" transform="translate(-4.43 14.61) rotate(-3.4)"/>
      <rect class="cls-19" x="179.54" y="96.22" width="111.75" height=".72" transform="translate(-5.42 14.43) rotate(-3.47)"/>
      <rect class="cls-19" x="177.65" y="79.2" width="103.92" height=".72" transform="translate(-4.52 14.5) rotate(-3.58)"/>
      <rect class="cls-19" x="175.43" y="60.87" width="32.79" height=".72" transform="translate(-2.86 9.81) rotate(-2.91)"/>
      <rect class="cls-19" x="185.73" y="62.06" width=".72" height="19.87" transform="translate(-3.62 10.18) rotate(-3.1)"/>
      <rect class="cls-19" x="197.49" y="61.18" width=".72" height="20.78" transform="translate(-6.34 20.85) rotate(-5.94)"/>
      <rect class="cls-19" x="225.56" y="47.55" width=".72" height="32.22" transform="translate(-3.01 11.87) rotate(-2.99)"/>
      <polygon class="cls-19" points="265.76 8.12 265.71 8.12 241.87 7.69 241.88 6.97 265.67 7.39 313.48 -6.37 338.33 -11.55 338.47 -10.84 313.66 -5.67 265.76 8.12"/>
      <rect class="cls-19" x="51.97" y="9.29" width="49.35" height=".72" transform="translate(33.8 73.93) rotate(-63.49)"/>
      <rect class="cls-19" x="37.86" y="7.04" width="54.17" height=".72" transform="translate(28.42 61.61) rotate(-62.53)"/>
      <rect class="cls-19" x="110.3" y="37.39" width=".72" height="88.16" transform="translate(-25.22 60.97) rotate(-27.78)"/>
      <polygon class="cls-19" points="96.45 77.28 96.29 77.2 44.59 52.87 44.9 52.22 96.43 76.47 105.49 71.67 105.83 72.31 96.45 77.28"/>
      <rect class="cls-19" x="46.92" y="44.96" width="27.03" height=".72" transform="translate(2.65 93.98) rotate(-76.96)"/>
      <polygon class="cls-19" points="113.98 122.02 113.18 109.26 69.46 111.06 58.25 103.21 58.67 102.62 69.67 110.33 113.86 108.51 114.7 121.98 113.98 122.02"/>
      <polygon class="cls-19" points="96.07 123.12 94.88 109.59 98.22 101.18 67.22 85.84 67.54 85.19 99.14 100.83 95.61 109.69 96.79 123.05 96.07 123.12"/>
      <rect class="cls-19" x="97.47" y="95.91" width="19.7" height=".72" transform="translate(-33.06 63.4) rotate(-28.72)"/>
      <polygon class="cls-16" points="123.94 113.6 119.78 111.15 115.4 113.18 116.45 108.47 113.16 104.93 117.97 104.47 120.31 100.25 122.24 104.68 126.98 105.61 123.36 108.8 123.94 113.6"/>
      <path class="cls-14" d="m49.68,126.95c0,1.76-1.43,3.2-3.2,3.2s-3.2-1.43-3.2-3.2,1.43-3.2,3.2-3.2,3.2,1.43,3.2,3.2Z"/>
      <path class="cls-16" d="m145.51,130.15c0,1.76-1.43,3.2-3.2,3.2s-3.2-1.43-3.2-3.2,1.43-3.2,3.2-3.2,3.2,1.43,3.2,3.2Z"/>
      <path class="cls-14" d="m155.84,110.7c0,1.76-1.43,3.2-3.2,3.2s-3.2-1.43-3.2-3.2,1.43-3.2,3.2-3.2,3.2,1.43,3.2,3.2Z"/>
      <path class="cls-14" d="m157.87,65.63c0,1.76-1.43,3.2-3.2,3.2s-3.2-1.43-3.2-3.2,1.43-3.2,3.2-3.2,3.2,1.43,3.2,3.2Z"/>
      <path class="cls-14" d="m129.2,70.38c0,1.76-1.43,3.2-3.2,3.2s-3.2-1.43-3.2-3.2,1.43-3.2,3.2-3.2,3.2,1.43,3.2,3.2Z"/>
      <path class="cls-14" d="m108.86,30c0,1.76-1.43,3.2-3.2,3.2s-3.2-1.43-3.2-3.2,1.43-3.2,3.2-3.2,3.2,1.43,3.2,3.2Z"/>
      <polygon class="cls-19" points="51.02 141.85 50.99 141.12 166.06 136.24 166.1 136.96 51.02 141.85"/>
      <rect class="cls-19" x="91.01" y="123.75" width=".72" height="16.11" transform="translate(-6.77 4.96) rotate(-3)"/>
      <rect class="cls-19" x="167.49" y="143.16" width="73.99" height=".72" transform="translate(-28.66 53.77) rotate(-14.01)"/>
      <polygon class="cls-19" points="32.21 94.7 28.61 50.41 17.96 41.09 17.96 -40.3 18.69 -40.3 18.69 40.76 29.31 50.06 29.32 50.21 32.87 93.93 49.03 92.85 49.07 93.57 32.21 94.7"/>
      <polygon class="cls-19" points="1.12 129.7 .63 122.93 .76 122.82 32.3 94.05 32.78 94.58 1.38 123.23 1.84 129.64 1.12 129.7"/>
      <rect class="cls-19" x="14.2" y="86.67" width=".72" height="44.31" transform="translate(-69.27 37.92) rotate(-42.15)"/>
      <rect class="cls-19" x="-.76" y="82.01" width="32.48" height=".72" transform="translate(-18.88 5.92) rotate(-13.56)"/>
      <polygon class="cls-19" points="-1.99 63.01 -2.21 62.32 14.37 57.2 25.13 46.85 25.63 47.37 14.75 57.85 -1.99 63.01"/>
      <rect class="cls-19" x="6.76" y="38.91" width=".72" height="21.58" transform="translate(-32.28 18.58) rotate(-43.54)"/>
      <rect class="cls-19" x="1.98" y="61.81" width=".72" height="23.41" transform="translate(-16.56 2.43) rotate(-13.07)"/>
      <rect class="cls-19" x="31.29" y="98.88" width=".72" height="20.62" transform="translate(-59.89 41.78) rotate(-37.47)"/>
      <rect class="cls-19" x="30.54" y="124.56" width=".72" height="26.63" transform="translate(-7.73 1.96) rotate(-3.24)"/>
      <polygon class="cls-19" points="50.77 148.24 31.42 147.56 31.44 146.84 50.79 147.52 50.77 148.24"/>
      <line class="cls-5" x1="90.34" y1="139.86" x2="90.59" y2="152.84"/>
      <line class="cls-5" x1="66.31" y1="140.75" x2="60.24" y2="223.94"/>
      <line class="cls-5" x1="49.53" y1="165.57" x2="118.62" y2="169.76"/>
      <line class="cls-5" x1="118.62" y1="171.74" x2="171.35" y2="169.76"/>
      <line class="cls-5" x1="133.86" y1="120.99" x2="152.03" y2="234.05"/>
      <line class="cls-5" x1="116.14" y1="122.02" x2="121.04" y2="230.58"/>
      <line class="cls-5" x1="65.36" y1="153.74" x2="117.43" y2="151.89"/>
      <line class="cls-5" x1="117.57" y1="153.74" x2="168.82" y2="151.89"/>
      <line class="cls-5" x1="148.56" y1="120.16" x2="167.5" y2="236.31"/>
      <line class="cls-5" x1="182.97" y1="237.3" x2="163.09" y2="119.94"/>
      <line class="cls-5" x1="170.69" y1="119.21" x2="196.89" y2="239.22"/>
      <line class="cls-5" x1="186.1" y1="117.97" x2="216.82" y2="240.99"/>
      <line class="cls-5" x1="202.29" y1="116.36" x2="233.44" y2="242.75"/>
      <line class="cls-5" x1="219.02" y1="115.48" x2="247.92" y2="244.15"/>
      <line class="cls-5" x1="235.42" y1="115.48" x2="253.61" y2="190.78"/>
      <line class="cls-5" x1="209.59" y1="212.02" x2="254.52" y2="200.69"/>
      <line class="cls-5" x1="186.1" y1="189.81" x2="119.67" y2="200.15"/>
      <line class="cls-5" x1="61.66" y1="204.42" x2="120.04" y2="208.5"/>
      <line class="cls-5" x1="89.68" y1="168" x2="91.37" y2="206.46"/>
      <line class="cls-5" x1="104.99" y1="168.93" x2="106.37" y2="229.77"/>
      <line class="cls-5" x1="80.88" y1="205.63" x2="80.16" y2="226.91"/>
      <line class="cls-5" x1="90.82" y1="193.86" x2="105.46" y2="192.99"/>
      <line class="cls-5" x1="63.55" y1="178.62" x2="90.24" y2="180.76"/>
      <line class="cls-5" x1="91.37" y1="168" x2="90.59" y2="152.84"/>
      <line class="cls-5" x1="-1.26" y1="176.91" x2="31.44" y2="146.84"/>
      <line class="cls-5" x1="-.58" y1="199.04" x2="46.48" y2="199.04"/>
      <line class="cls-5" x1="31.42" y1="147.56" x2="34.4" y2="199.04"/>
      <polyline class="cls-5" points=".17 186.27 16.71 184.87 16.71 199.37 16.71 220.95"/>
      <line class="cls-5" x1="-.58" y1="235.15" x2="44.41" y2="236.31"/>
      <line class="cls-5" x1=".17" y1="247.7" x2="43.75" y2="243.54"/>
      <line class="cls-5" x1="70.84" y1="226.12" x2="67.09" y2="252.02"/>
      <line class="cls-5" x1="84.08" y1="227" x2="80.52" y2="252.02"/>
      <line class="cls-5" x1="99.46" y1="228.77" x2="93.52" y2="252.55"/>
      <line class="cls-5" x1="124.23" y1="231.2" x2="121.48" y2="252.02"/>
      <line class="cls-5" x1="149.33" y1="234.05" x2="146.03" y2="252.02"/>
      <line class="cls-5" x1="163.09" y1="236.31" x2="160.45" y2="252.02"/>
      <line class="cls-5" x1="186.1" y1="238.12" x2="183.79" y2="252.02"/>
      <line class="cls-5" x1="212.52" y1="240.66" x2="210.65" y2="252.02"/>
    </g>
  </g>
  <text class="cls-15" transform="translate(137.5 75.91) scale(1.06 1)"><tspan x="0" y="0">北洋資料館</tspan></text>
  <text class="cls-15" transform="translate(134.19 104.58) scale(1.06 1)"><tspan x="0" y="0">五稜郭病院</tspan></text>
  <text class="cls-17" transform="translate(146.63 133.03) scale(1.06 1)"><tspan class="cls-20" x="0" y="0">ナ</tspan><tspan class="cls-23" x="7.07" y="0">カ</tspan><tspan class="cls-29" x="14.21" y="0">ジ</tspan><tspan x="21.65" y="0">マ薬局</tspan><tspan x="-6.43" y="9.02">(駐車場利用可能)</tspan></text>
  <text class="cls-15" transform="translate(15.23 137.65) scale(1.06 1)"><tspan x="0" y="0">ル</tspan><tspan class="cls-27" x="7.52" y="0">ー</tspan><tspan class="cls-26" x="13.91" y="0">ト</tspan><tspan class="cls-24" x="20.75" y="0">イ</tspan><tspan class="cls-22" x="27.51" y="0">ン</tspan><tspan class="cls-23" x="34.2" y="0">グ</tspan><tspan class="cls-25" x="41.35" y="0">ラ</tspan><tspan class="cls-23" x="48.11" y="0">ン</tspan><tspan class="cls-21" x="55.25" y="0">ティ</tspan><tspan class="cls-12" x="67.88" y="0">ア</tspan></text>
  <text class="cls-15" transform="translate(21.16 234.82) scale(1.06 1)"><tspan x="0" y="0">市</tspan><tspan class="cls-28" x="7.52" y="0">電：</tspan><tspan x="18.79" y="0">五稜郭公園前</tspan></text>
  <text class="cls-15" transform="translate(82.15 40.16) scale(1.06 1)"><tspan x="0" y="0">五稜</tspan><tspan class="cls-23" x="15.03" y="0">郭</tspan><tspan class="cls-26" x="22.18" y="0">タ</tspan><tspan class="cls-23" x="29.02" y="0">ワ</tspan><tspan class="cls-11" x="36.16" y="0">ー</tspan></text>
  <text class="cls-15" transform="translate(143.28 26.42) scale(1.06 1)"><tspan x="0" y="0">五稜郭公園</tspan></text>
  <text class="cls-15" transform="translate(105.88 63.55) scale(1.06 1)"><tspan x="0" y="0">函館美術館</tspan></text>
  <text class="cls-15" transform="translate(92.23 94.07) scale(1.06 1)"><tspan x="0" y="0">一方通行注意</tspan></text>
  <text class="cls-18" transform="translate(96.88 106.77) scale(1.06 1)"><tspan x="0" y="0">当院</tspan></text>
  <g>
    <line class="cls-4" x1="110.75" y1="76.41" x2="116.5" y2="86.29"/>
    <polygon class="cls-14" points="109.41 79.63 111.22 77.21 114.21 76.83 108.5 72.54 109.41 79.63"/>
  </g>
  <rect class="cls-7" x=".5" y=".5" width="266.37" height="242.82"/>
  <path class="cls-14" d="m57.65,224.57c0,1.76-1.43,3.2-3.2,3.2s-3.2-1.43-3.2-3.2,1.43-3.2,3.2-3.2,3.2,1.43,3.2,3.2Z"/>
  <g>
    <line class="cls-3" x1="50.58" y1="223.91" x2="48.09" y2="223.63"/>
    <polyline class="cls-3" points="47.91 223.61 45.43 223.33 45.61 220.84"/>
    <line class="cls-6" x1="45.83" y1="217.77" x2="52.16" y2="129.1"/>
    <polyline class="cls-3" points="52.27 127.56 52.45 125.07 54.95 124.94"/>
    <line class="cls-8" x1="57.86" y1="124.78" x2="126.2" y2="121.16"/>
    <polyline class="cls-3" points="127.65 121.08 130.15 120.95 128.94 118.76"/>
    <line class="cls-2" x1="127.84" y1="116.75" x2="125.46" y2="112.39"/>
    <line class="cls-3" x1="124.91" y1="111.39" x2="123.71" y2="109.2"/>
  </g>
  <polyline class="cls-9" points="58.09 224.57 60.16 224.99 61.64 204.72 120.01 208.76 116.18 122.81 132.38 122.15 124.55 107.75"/>
  <polyline class="cls-10" points="143.38 124.61 141.93 120.84 133.23 121.2 126.21 108.37"/>
</svg>